<mxfile host="app.diagrams.net" agent="Mozilla/5.0 (Windows NT 10.0; Win64; x64) AppleWebKit/537.36 (KHTML, like Gecko) Chrome/135.0.0.0 Safari/537.36" version="26.2.14" pages="5">
  <diagram name="PÃ¡gina-1" id="H4BVTOq8FtXzZgD5VnNj">
    <mxGraphModel dx="1426" dy="777" grid="1" gridSize="10" guides="1" tooltips="1" connect="1" arrows="1" fold="1" page="1" pageScale="1" pageWidth="827" pageHeight="1169" math="0" shadow="0">
      <root>
        <mxCell id="0" />
        <mxCell id="1" parent="0" />
        <mxCell id="yqzHyA06ikq1DESax_Z_-22" style="rounded=0;orthogonalLoop=1;jettySize=auto;html=1;exitX=1;exitY=1;exitDx=0;exitDy=0;entryX=0;entryY=0;entryDx=0;entryDy=0;" parent="1" source="yqzHyA06ikq1DESax_Z_-1" target="yqzHyA06ikq1DESax_Z_-3" edge="1">
          <mxGeometry relative="1" as="geometry" />
        </mxCell>
        <mxCell id="yqzHyA06ikq1DESax_Z_-23" style="edgeStyle=orthogonalEdgeStyle;rounded=0;orthogonalLoop=1;jettySize=auto;html=1;exitX=0.5;exitY=1;exitDx=0;exitDy=0;entryX=0.5;entryY=0;entryDx=0;entryDy=0;" parent="1" source="yqzHyA06ikq1DESax_Z_-1" target="yqzHyA06ikq1DESax_Z_-5" edge="1">
          <mxGeometry relative="1" as="geometry" />
        </mxCell>
        <mxCell id="yqzHyA06ikq1DESax_Z_-24" style="rounded=0;orthogonalLoop=1;jettySize=auto;html=1;exitX=0;exitY=1;exitDx=0;exitDy=0;entryX=1;entryY=0;entryDx=0;entryDy=0;" parent="1" source="yqzHyA06ikq1DESax_Z_-1" target="yqzHyA06ikq1DESax_Z_-2" edge="1">
          <mxGeometry relative="1" as="geometry" />
        </mxCell>
        <mxCell id="yqzHyA06ikq1DESax_Z_-40" value="&lt;font style=&quot;font-size: 15px;&quot;&gt;M01&lt;/font&gt;" style="edgeLabel;html=1;align=center;verticalAlign=middle;resizable=0;points=[];" parent="yqzHyA06ikq1DESax_Z_-24" vertex="1" connectable="0">
          <mxGeometry x="-0.2972" y="-1" relative="1" as="geometry">
            <mxPoint x="-21" y="-11" as="offset" />
          </mxGeometry>
        </mxCell>
        <mxCell id="yqzHyA06ikq1DESax_Z_-1" value="" style="ellipse;whiteSpace=wrap;html=1;aspect=fixed;" parent="1" vertex="1">
          <mxGeometry x="380" y="20" width="40" height="40" as="geometry" />
        </mxCell>
        <mxCell id="yqzHyA06ikq1DESax_Z_-25" style="rounded=0;orthogonalLoop=1;jettySize=auto;html=1;exitX=0;exitY=1;exitDx=0;exitDy=0;entryX=1;entryY=0;entryDx=0;entryDy=0;" parent="1" source="yqzHyA06ikq1DESax_Z_-2" target="yqzHyA06ikq1DESax_Z_-4" edge="1">
          <mxGeometry relative="1" as="geometry" />
        </mxCell>
        <mxCell id="yqzHyA06ikq1DESax_Z_-2" value="" style="ellipse;whiteSpace=wrap;html=1;aspect=fixed;" parent="1" vertex="1">
          <mxGeometry x="310" y="70" width="40" height="40" as="geometry" />
        </mxCell>
        <mxCell id="yqzHyA06ikq1DESax_Z_-37" style="rounded=0;orthogonalLoop=1;jettySize=auto;html=1;exitX=1;exitY=1;exitDx=0;exitDy=0;entryX=0;entryY=0;entryDx=0;entryDy=0;" parent="1" source="yqzHyA06ikq1DESax_Z_-3" target="yqzHyA06ikq1DESax_Z_-6" edge="1">
          <mxGeometry relative="1" as="geometry" />
        </mxCell>
        <mxCell id="yqzHyA06ikq1DESax_Z_-3" value="" style="ellipse;whiteSpace=wrap;html=1;aspect=fixed;" parent="1" vertex="1">
          <mxGeometry x="450" y="70" width="40" height="40" as="geometry" />
        </mxCell>
        <mxCell id="yqzHyA06ikq1DESax_Z_-4" value="" style="ellipse;whiteSpace=wrap;html=1;aspect=fixed;fillColor=#B3B3B3;fontColor=#333333;strokeColor=#585858;" parent="1" vertex="1">
          <mxGeometry x="250" y="120" width="40" height="40" as="geometry" />
        </mxCell>
        <mxCell id="yqzHyA06ikq1DESax_Z_-26" style="rounded=0;orthogonalLoop=1;jettySize=auto;html=1;exitX=0;exitY=1;exitDx=0;exitDy=0;entryX=1;entryY=0;entryDx=0;entryDy=0;" parent="1" source="yqzHyA06ikq1DESax_Z_-5" target="yqzHyA06ikq1DESax_Z_-7" edge="1">
          <mxGeometry relative="1" as="geometry" />
        </mxCell>
        <mxCell id="yqzHyA06ikq1DESax_Z_-28" style="edgeStyle=orthogonalEdgeStyle;rounded=0;orthogonalLoop=1;jettySize=auto;html=1;exitX=0.5;exitY=1;exitDx=0;exitDy=0;entryX=0.5;entryY=0;entryDx=0;entryDy=0;" parent="1" source="yqzHyA06ikq1DESax_Z_-5" target="yqzHyA06ikq1DESax_Z_-9" edge="1">
          <mxGeometry relative="1" as="geometry" />
        </mxCell>
        <mxCell id="yqzHyA06ikq1DESax_Z_-32" style="rounded=0;orthogonalLoop=1;jettySize=auto;html=1;exitX=1;exitY=1;exitDx=0;exitDy=0;entryX=0;entryY=0;entryDx=0;entryDy=0;" parent="1" source="yqzHyA06ikq1DESax_Z_-5" target="yqzHyA06ikq1DESax_Z_-13" edge="1">
          <mxGeometry relative="1" as="geometry" />
        </mxCell>
        <mxCell id="yqzHyA06ikq1DESax_Z_-5" value="" style="ellipse;whiteSpace=wrap;html=1;aspect=fixed;" parent="1" vertex="1">
          <mxGeometry x="380" y="90" width="40" height="40" as="geometry" />
        </mxCell>
        <mxCell id="yqzHyA06ikq1DESax_Z_-38" style="edgeStyle=orthogonalEdgeStyle;rounded=0;orthogonalLoop=1;jettySize=auto;html=1;exitX=0.5;exitY=1;exitDx=0;exitDy=0;entryX=0.5;entryY=0;entryDx=0;entryDy=0;" parent="1" source="yqzHyA06ikq1DESax_Z_-6" target="yqzHyA06ikq1DESax_Z_-18" edge="1">
          <mxGeometry relative="1" as="geometry" />
        </mxCell>
        <mxCell id="yqzHyA06ikq1DESax_Z_-6" value="" style="ellipse;whiteSpace=wrap;html=1;aspect=fixed;" parent="1" vertex="1">
          <mxGeometry x="500" y="120" width="40" height="40" as="geometry" />
        </mxCell>
        <mxCell id="yqzHyA06ikq1DESax_Z_-27" style="rounded=0;orthogonalLoop=1;jettySize=auto;html=1;exitX=0;exitY=1;exitDx=0;exitDy=0;entryX=1;entryY=0;entryDx=0;entryDy=0;" parent="1" source="yqzHyA06ikq1DESax_Z_-7" target="yqzHyA06ikq1DESax_Z_-8" edge="1">
          <mxGeometry relative="1" as="geometry" />
        </mxCell>
        <mxCell id="yqzHyA06ikq1DESax_Z_-7" value="" style="ellipse;whiteSpace=wrap;html=1;aspect=fixed;" parent="1" vertex="1">
          <mxGeometry x="320" y="150" width="40" height="40" as="geometry" />
        </mxCell>
        <mxCell id="yqzHyA06ikq1DESax_Z_-8" value="" style="ellipse;whiteSpace=wrap;html=1;aspect=fixed;fillColor=#B3B3B3;" parent="1" vertex="1">
          <mxGeometry x="260" y="200" width="40" height="40" as="geometry" />
        </mxCell>
        <mxCell id="yqzHyA06ikq1DESax_Z_-29" style="edgeStyle=orthogonalEdgeStyle;rounded=0;orthogonalLoop=1;jettySize=auto;html=1;exitX=0.5;exitY=1;exitDx=0;exitDy=0;entryX=0.5;entryY=0;entryDx=0;entryDy=0;" parent="1" source="yqzHyA06ikq1DESax_Z_-9" target="yqzHyA06ikq1DESax_Z_-10" edge="1">
          <mxGeometry relative="1" as="geometry" />
        </mxCell>
        <mxCell id="yqzHyA06ikq1DESax_Z_-9" value="" style="ellipse;whiteSpace=wrap;html=1;aspect=fixed;" parent="1" vertex="1">
          <mxGeometry x="380" y="170" width="40" height="40" as="geometry" />
        </mxCell>
        <mxCell id="yqzHyA06ikq1DESax_Z_-30" style="edgeStyle=orthogonalEdgeStyle;rounded=0;orthogonalLoop=1;jettySize=auto;html=1;exitX=0.5;exitY=1;exitDx=0;exitDy=0;entryX=0.5;entryY=0;entryDx=0;entryDy=0;" parent="1" source="yqzHyA06ikq1DESax_Z_-10" target="yqzHyA06ikq1DESax_Z_-11" edge="1">
          <mxGeometry relative="1" as="geometry" />
        </mxCell>
        <mxCell id="yqzHyA06ikq1DESax_Z_-10" value="" style="ellipse;whiteSpace=wrap;html=1;aspect=fixed;" parent="1" vertex="1">
          <mxGeometry x="380" y="240" width="40" height="40" as="geometry" />
        </mxCell>
        <mxCell id="yqzHyA06ikq1DESax_Z_-31" style="edgeStyle=orthogonalEdgeStyle;rounded=0;orthogonalLoop=1;jettySize=auto;html=1;exitX=0.5;exitY=1;exitDx=0;exitDy=0;entryX=0.5;entryY=0;entryDx=0;entryDy=0;" parent="1" source="yqzHyA06ikq1DESax_Z_-11" target="yqzHyA06ikq1DESax_Z_-12" edge="1">
          <mxGeometry relative="1" as="geometry" />
        </mxCell>
        <mxCell id="yqzHyA06ikq1DESax_Z_-11" value="" style="ellipse;whiteSpace=wrap;html=1;aspect=fixed;" parent="1" vertex="1">
          <mxGeometry x="380" y="310" width="40" height="40" as="geometry" />
        </mxCell>
        <mxCell id="yqzHyA06ikq1DESax_Z_-12" value="" style="ellipse;whiteSpace=wrap;html=1;aspect=fixed;fillColor=#B3B3B3;" parent="1" vertex="1">
          <mxGeometry x="380" y="380" width="40" height="40" as="geometry" />
        </mxCell>
        <mxCell id="yqzHyA06ikq1DESax_Z_-33" style="edgeStyle=orthogonalEdgeStyle;rounded=0;orthogonalLoop=1;jettySize=auto;html=1;exitX=0.5;exitY=1;exitDx=0;exitDy=0;entryX=0.5;entryY=0;entryDx=0;entryDy=0;" parent="1" source="yqzHyA06ikq1DESax_Z_-13" target="yqzHyA06ikq1DESax_Z_-14" edge="1">
          <mxGeometry relative="1" as="geometry" />
        </mxCell>
        <mxCell id="yqzHyA06ikq1DESax_Z_-13" value="" style="ellipse;whiteSpace=wrap;html=1;aspect=fixed;" parent="1" vertex="1">
          <mxGeometry x="440" y="150" width="40" height="40" as="geometry" />
        </mxCell>
        <mxCell id="yqzHyA06ikq1DESax_Z_-34" style="edgeStyle=orthogonalEdgeStyle;rounded=0;orthogonalLoop=1;jettySize=auto;html=1;exitX=0.5;exitY=1;exitDx=0;exitDy=0;entryX=0.5;entryY=0;entryDx=0;entryDy=0;" parent="1" source="yqzHyA06ikq1DESax_Z_-14" target="yqzHyA06ikq1DESax_Z_-15" edge="1">
          <mxGeometry relative="1" as="geometry" />
        </mxCell>
        <mxCell id="yqzHyA06ikq1DESax_Z_-14" value="" style="ellipse;whiteSpace=wrap;html=1;aspect=fixed;" parent="1" vertex="1">
          <mxGeometry x="440" y="220" width="40" height="40" as="geometry" />
        </mxCell>
        <mxCell id="yqzHyA06ikq1DESax_Z_-35" style="edgeStyle=orthogonalEdgeStyle;rounded=0;orthogonalLoop=1;jettySize=auto;html=1;exitX=0.5;exitY=1;exitDx=0;exitDy=0;entryX=0.5;entryY=0;entryDx=0;entryDy=0;" parent="1" source="yqzHyA06ikq1DESax_Z_-15" target="yqzHyA06ikq1DESax_Z_-16" edge="1">
          <mxGeometry relative="1" as="geometry" />
        </mxCell>
        <mxCell id="yqzHyA06ikq1DESax_Z_-15" value="" style="ellipse;whiteSpace=wrap;html=1;aspect=fixed;" parent="1" vertex="1">
          <mxGeometry x="440" y="290" width="40" height="40" as="geometry" />
        </mxCell>
        <mxCell id="yqzHyA06ikq1DESax_Z_-36" style="edgeStyle=orthogonalEdgeStyle;rounded=0;orthogonalLoop=1;jettySize=auto;html=1;exitX=0.5;exitY=1;exitDx=0;exitDy=0;entryX=0.5;entryY=0;entryDx=0;entryDy=0;" parent="1" source="yqzHyA06ikq1DESax_Z_-16" target="yqzHyA06ikq1DESax_Z_-17" edge="1">
          <mxGeometry relative="1" as="geometry" />
        </mxCell>
        <mxCell id="yqzHyA06ikq1DESax_Z_-16" value="" style="ellipse;whiteSpace=wrap;html=1;aspect=fixed;" parent="1" vertex="1">
          <mxGeometry x="440" y="360" width="40" height="40" as="geometry" />
        </mxCell>
        <mxCell id="yqzHyA06ikq1DESax_Z_-17" value="" style="ellipse;whiteSpace=wrap;html=1;aspect=fixed;fillColor=#B3B3B3;" parent="1" vertex="1">
          <mxGeometry x="440" y="430" width="40" height="40" as="geometry" />
        </mxCell>
        <mxCell id="yqzHyA06ikq1DESax_Z_-39" style="edgeStyle=orthogonalEdgeStyle;rounded=0;orthogonalLoop=1;jettySize=auto;html=1;exitX=0.5;exitY=1;exitDx=0;exitDy=0;entryX=0.5;entryY=0;entryDx=0;entryDy=0;" parent="1" source="yqzHyA06ikq1DESax_Z_-18" target="yqzHyA06ikq1DESax_Z_-19" edge="1">
          <mxGeometry relative="1" as="geometry" />
        </mxCell>
        <mxCell id="yqzHyA06ikq1DESax_Z_-18" value="" style="ellipse;whiteSpace=wrap;html=1;aspect=fixed;" parent="1" vertex="1">
          <mxGeometry x="500" y="190" width="40" height="40" as="geometry" />
        </mxCell>
        <mxCell id="yqzHyA06ikq1DESax_Z_-19" value="" style="ellipse;whiteSpace=wrap;html=1;aspect=fixed;fillColor=#B3B3B3;" parent="1" vertex="1">
          <mxGeometry x="500" y="260" width="40" height="40" as="geometry" />
        </mxCell>
        <mxCell id="yqzHyA06ikq1DESax_Z_-41" value="&lt;font style=&quot;font-size: 15px;&quot;&gt;M01&lt;/font&gt;" style="edgeLabel;html=1;align=center;verticalAlign=middle;resizable=0;points=[];" parent="1" vertex="1" connectable="0">
          <mxGeometry x="300.0025883766151" y="100.0009047835997" as="geometry">
            <mxPoint x="-13" as="offset" />
          </mxGeometry>
        </mxCell>
        <mxCell id="yqzHyA06ikq1DESax_Z_-42" value="&lt;font style=&quot;font-size: 15px;&quot;&gt;M01&lt;/font&gt;" style="edgeLabel;html=1;align=center;verticalAlign=middle;resizable=0;points=[];" parent="1" vertex="1" connectable="0">
          <mxGeometry x="350.0025883766151" y="130.0009047835997" as="geometry" />
        </mxCell>
        <mxCell id="yqzHyA06ikq1DESax_Z_-43" value="&lt;font style=&quot;font-size: 15px;&quot;&gt;M01&lt;/font&gt;" style="edgeLabel;html=1;align=center;verticalAlign=middle;resizable=0;points=[];" parent="1" vertex="1" connectable="0">
          <mxGeometry x="300.0025883766151" y="180.0009047835997" as="geometry" />
        </mxCell>
        <mxCell id="yqzHyA06ikq1DESax_Z_-44" value="&lt;font style=&quot;font-size: 15px;&quot;&gt;M01&lt;/font&gt;" style="edgeLabel;html=1;align=center;verticalAlign=middle;resizable=0;points=[];" parent="1" vertex="1" connectable="0">
          <mxGeometry x="380.0025883766151" y="290.0009047835997" as="geometry" />
        </mxCell>
        <mxCell id="yqzHyA06ikq1DESax_Z_-45" value="&lt;font style=&quot;font-size: 15px;&quot;&gt;M01&lt;/font&gt;" style="edgeLabel;html=1;align=center;verticalAlign=middle;resizable=0;points=[];" parent="1" vertex="1" connectable="0">
          <mxGeometry x="380.0025883766151" y="360.0009047835997" as="geometry" />
        </mxCell>
        <mxCell id="yqzHyA06ikq1DESax_Z_-46" value="&lt;font style=&quot;font-size: 15px;&quot;&gt;M01&lt;/font&gt;" style="edgeLabel;html=1;align=center;verticalAlign=middle;resizable=0;points=[];" parent="1" vertex="1" connectable="0">
          <mxGeometry x="540.0025883766151" y="170.0009047835997" as="geometry" />
        </mxCell>
        <mxCell id="yqzHyA06ikq1DESax_Z_-47" value="&lt;font style=&quot;font-size: 15px;&quot;&gt;M01&lt;/font&gt;" style="edgeLabel;html=1;align=center;verticalAlign=middle;resizable=0;points=[];" parent="1" vertex="1" connectable="0">
          <mxGeometry x="540.0025883766151" y="240.0009047835997" as="geometry" />
        </mxCell>
        <mxCell id="yqzHyA06ikq1DESax_Z_-48" value="&lt;font style=&quot;font-size: 15px;&quot;&gt;M01&lt;/font&gt;" style="edgeLabel;html=1;align=center;verticalAlign=middle;resizable=0;points=[];" parent="1" vertex="1" connectable="0">
          <mxGeometry x="480.0025883766151" y="410.0009047835997" as="geometry" />
        </mxCell>
        <mxCell id="yqzHyA06ikq1DESax_Z_-49" value="&lt;font style=&quot;font-size: 15px;&quot;&gt;M01&lt;/font&gt;" style="edgeLabel;html=1;align=center;verticalAlign=middle;resizable=0;points=[];" parent="1" vertex="1" connectable="0">
          <mxGeometry x="480.0025883766151" y="340.0009047835997" as="geometry" />
        </mxCell>
        <mxCell id="yqzHyA06ikq1DESax_Z_-50" value="&lt;font style=&quot;font-size: 15px;&quot;&gt;C01&lt;/font&gt;" style="edgeLabel;html=1;align=center;verticalAlign=middle;resizable=0;points=[];" parent="1" vertex="1" connectable="0">
          <mxGeometry x="380.0025883766151" y="60.000904783599694" as="geometry">
            <mxPoint x="2" y="11" as="offset" />
          </mxGeometry>
        </mxCell>
        <mxCell id="yqzHyA06ikq1DESax_Z_-51" value="&lt;font style=&quot;font-size: 15px;&quot;&gt;C01&lt;/font&gt;" style="edgeLabel;html=1;align=center;verticalAlign=middle;resizable=0;points=[];" parent="1" vertex="1" connectable="0">
          <mxGeometry x="450.0025883766151" y="120.0009047835997" as="geometry">
            <mxPoint x="2" y="11" as="offset" />
          </mxGeometry>
        </mxCell>
        <mxCell id="yqzHyA06ikq1DESax_Z_-53" value="&lt;font style=&quot;font-size: 15px;&quot;&gt;C08&lt;/font&gt;" style="edgeLabel;html=1;align=center;verticalAlign=middle;resizable=0;points=[];" parent="1" vertex="1" connectable="0">
          <mxGeometry x="450.0025883766151" y="40.00090478359971" as="geometry">
            <mxPoint x="2" y="11" as="offset" />
          </mxGeometry>
        </mxCell>
        <mxCell id="yqzHyA06ikq1DESax_Z_-54" value="&lt;font style=&quot;font-size: 15px;&quot;&gt;C08&lt;/font&gt;" style="edgeLabel;html=1;align=center;verticalAlign=middle;resizable=0;points=[];" parent="1" vertex="1" connectable="0">
          <mxGeometry x="520.0025883766151" y="90.00090478359971" as="geometry">
            <mxPoint x="2" y="11" as="offset" />
          </mxGeometry>
        </mxCell>
        <mxCell id="yqzHyA06ikq1DESax_Z_-55" value="&lt;font style=&quot;font-size: 15px;&quot;&gt;C08&lt;/font&gt;" style="edgeLabel;html=1;align=center;verticalAlign=middle;resizable=0;points=[];" parent="1" vertex="1" connectable="0">
          <mxGeometry x="380.0025883766151" y="140.0009047835997" as="geometry">
            <mxPoint x="2" y="11" as="offset" />
          </mxGeometry>
        </mxCell>
        <mxCell id="yqzHyA06ikq1DESax_Z_-56" value="&lt;font style=&quot;font-size: 15px;&quot;&gt;C08&lt;/font&gt;" style="edgeLabel;html=1;align=center;verticalAlign=middle;resizable=0;points=[];" parent="1" vertex="1" connectable="0">
          <mxGeometry x="380.0025883766151" y="210.0009047835997" as="geometry">
            <mxPoint x="2" y="11" as="offset" />
          </mxGeometry>
        </mxCell>
        <mxCell id="yqzHyA06ikq1DESax_Z_-57" value="&lt;font style=&quot;font-size: 15px;&quot;&gt;C08&lt;/font&gt;" style="edgeLabel;html=1;align=center;verticalAlign=middle;resizable=0;points=[];" parent="1" vertex="1" connectable="0">
          <mxGeometry x="480.0025883766151" y="190.0009047835997" as="geometry">
            <mxPoint x="2" y="11" as="offset" />
          </mxGeometry>
        </mxCell>
        <mxCell id="yqzHyA06ikq1DESax_Z_-58" value="&lt;font style=&quot;font-size: 15px;&quot;&gt;C08&lt;/font&gt;" style="edgeLabel;html=1;align=center;verticalAlign=middle;resizable=0;points=[];" parent="1" vertex="1" connectable="0">
          <mxGeometry x="480.0025883766151" y="260.0009047835997" as="geometry">
            <mxPoint x="2" y="11" as="offset" />
          </mxGeometry>
        </mxCell>
      </root>
    </mxGraphModel>
  </diagram>
  <diagram id="aroB1b_y4DzfXhn17SN2" name="PÃ¡gina-2">
    <mxGraphModel dx="983" dy="1705" grid="1" gridSize="10" guides="1" tooltips="1" connect="1" arrows="1" fold="1" page="1" pageScale="1" pageWidth="827" pageHeight="1169" math="0" shadow="0">
      <root>
        <mxCell id="0" />
        <mxCell id="1" parent="0" />
        <mxCell id="ecHh17Bd5T7c7saSHl4--1" style="rounded=0;orthogonalLoop=1;jettySize=auto;html=1;exitX=1;exitY=1;exitDx=0;exitDy=0;entryX=0;entryY=0;entryDx=0;entryDy=0;" parent="1" source="ecHh17Bd5T7c7saSHl4--5" target="ecHh17Bd5T7c7saSHl4--9" edge="1">
          <mxGeometry relative="1" as="geometry" />
        </mxCell>
        <mxCell id="ecHh17Bd5T7c7saSHl4--3" style="rounded=0;orthogonalLoop=1;jettySize=auto;html=1;exitX=0;exitY=1;exitDx=0;exitDy=0;entryX=1;entryY=0;entryDx=0;entryDy=0;" parent="1" source="ecHh17Bd5T7c7saSHl4--5" target="ecHh17Bd5T7c7saSHl4--7" edge="1">
          <mxGeometry relative="1" as="geometry" />
        </mxCell>
        <mxCell id="ecHh17Bd5T7c7saSHl4--4" value="&lt;font style=&quot;font-size: 15px;&quot;&gt;M01&lt;/font&gt;" style="edgeLabel;html=1;align=center;verticalAlign=middle;resizable=0;points=[];" parent="ecHh17Bd5T7c7saSHl4--3" vertex="1" connectable="0">
          <mxGeometry x="-0.2972" y="-1" relative="1" as="geometry">
            <mxPoint x="-21" y="-11" as="offset" />
          </mxGeometry>
        </mxCell>
        <mxCell id="ecHh17Bd5T7c7saSHl4--5" value="" style="ellipse;whiteSpace=wrap;html=1;aspect=fixed;" parent="1" vertex="1">
          <mxGeometry x="380" y="20" width="40" height="40" as="geometry" />
        </mxCell>
        <mxCell id="ecHh17Bd5T7c7saSHl4--6" style="rounded=0;orthogonalLoop=1;jettySize=auto;html=1;exitX=0;exitY=1;exitDx=0;exitDy=0;entryX=1;entryY=0;entryDx=0;entryDy=0;" parent="1" source="ecHh17Bd5T7c7saSHl4--7" target="ecHh17Bd5T7c7saSHl4--10" edge="1">
          <mxGeometry relative="1" as="geometry" />
        </mxCell>
        <mxCell id="ecHh17Bd5T7c7saSHl4--7" value="" style="ellipse;whiteSpace=wrap;html=1;aspect=fixed;" parent="1" vertex="1">
          <mxGeometry x="310" y="70" width="40" height="40" as="geometry" />
        </mxCell>
        <mxCell id="ecHh17Bd5T7c7saSHl4--8" style="rounded=0;orthogonalLoop=1;jettySize=auto;html=1;exitX=1;exitY=1;exitDx=0;exitDy=0;entryX=0;entryY=0;entryDx=0;entryDy=0;" parent="1" source="ecHh17Bd5T7c7saSHl4--9" target="ecHh17Bd5T7c7saSHl4--16" edge="1">
          <mxGeometry relative="1" as="geometry" />
        </mxCell>
        <mxCell id="ecHh17Bd5T7c7saSHl4--9" value="" style="ellipse;whiteSpace=wrap;html=1;aspect=fixed;" parent="1" vertex="1">
          <mxGeometry x="450" y="70" width="40" height="40" as="geometry" />
        </mxCell>
        <mxCell id="ecHh17Bd5T7c7saSHl4--10" value="" style="ellipse;whiteSpace=wrap;html=1;aspect=fixed;fillColor=#B3B3B3;fontColor=#333333;strokeColor=#585858;" parent="1" vertex="1">
          <mxGeometry x="250" y="120" width="40" height="40" as="geometry" />
        </mxCell>
        <mxCell id="ecHh17Bd5T7c7saSHl4--11" style="rounded=0;orthogonalLoop=1;jettySize=auto;html=1;entryX=1;entryY=0;entryDx=0;entryDy=0;" parent="1" target="ecHh17Bd5T7c7saSHl4--18" edge="1">
          <mxGeometry relative="1" as="geometry">
            <mxPoint x="400" y="110" as="sourcePoint" />
          </mxGeometry>
        </mxCell>
        <mxCell id="ecHh17Bd5T7c7saSHl4--12" style="edgeStyle=orthogonalEdgeStyle;rounded=0;orthogonalLoop=1;jettySize=auto;html=1;exitX=0.5;exitY=1;exitDx=0;exitDy=0;entryX=0.5;entryY=0;entryDx=0;entryDy=0;" parent="1" target="ecHh17Bd5T7c7saSHl4--21" edge="1">
          <mxGeometry relative="1" as="geometry">
            <mxPoint x="400" y="130" as="sourcePoint" />
            <Array as="points">
              <mxPoint x="400" y="151" />
              <mxPoint x="400" y="151" />
            </Array>
          </mxGeometry>
        </mxCell>
        <mxCell id="ecHh17Bd5T7c7saSHl4--15" style="edgeStyle=orthogonalEdgeStyle;rounded=0;orthogonalLoop=1;jettySize=auto;html=1;exitX=0.5;exitY=1;exitDx=0;exitDy=0;entryX=0.5;entryY=0;entryDx=0;entryDy=0;" parent="1" source="ecHh17Bd5T7c7saSHl4--16" target="ecHh17Bd5T7c7saSHl4--37" edge="1">
          <mxGeometry relative="1" as="geometry" />
        </mxCell>
        <mxCell id="ecHh17Bd5T7c7saSHl4--16" value="" style="ellipse;whiteSpace=wrap;html=1;aspect=fixed;" parent="1" vertex="1">
          <mxGeometry x="500" y="120" width="40" height="40" as="geometry" />
        </mxCell>
        <mxCell id="ecHh17Bd5T7c7saSHl4--17" style="rounded=0;orthogonalLoop=1;jettySize=auto;html=1;exitX=0;exitY=1;exitDx=0;exitDy=0;entryX=1;entryY=0;entryDx=0;entryDy=0;" parent="1" source="ecHh17Bd5T7c7saSHl4--18" target="ecHh17Bd5T7c7saSHl4--19" edge="1">
          <mxGeometry relative="1" as="geometry" />
        </mxCell>
        <mxCell id="ecHh17Bd5T7c7saSHl4--18" value="" style="ellipse;whiteSpace=wrap;html=1;aspect=fixed;" parent="1" vertex="1">
          <mxGeometry x="320" y="150" width="40" height="40" as="geometry" />
        </mxCell>
        <mxCell id="ecHh17Bd5T7c7saSHl4--19" value="" style="ellipse;whiteSpace=wrap;html=1;aspect=fixed;fillColor=#B3B3B3;" parent="1" vertex="1">
          <mxGeometry x="260" y="200" width="40" height="40" as="geometry" />
        </mxCell>
        <mxCell id="ecHh17Bd5T7c7saSHl4--20" style="edgeStyle=orthogonalEdgeStyle;rounded=0;orthogonalLoop=1;jettySize=auto;html=1;exitX=0.5;exitY=1;exitDx=0;exitDy=0;entryX=0.5;entryY=0;entryDx=0;entryDy=0;" parent="1" source="ecHh17Bd5T7c7saSHl4--21" target="ecHh17Bd5T7c7saSHl4--23" edge="1">
          <mxGeometry relative="1" as="geometry" />
        </mxCell>
        <mxCell id="ecHh17Bd5T7c7saSHl4--21" value="" style="ellipse;whiteSpace=wrap;html=1;aspect=fixed;" parent="1" vertex="1">
          <mxGeometry x="380" y="170" width="40" height="40" as="geometry" />
        </mxCell>
        <mxCell id="ecHh17Bd5T7c7saSHl4--22" style="edgeStyle=orthogonalEdgeStyle;rounded=0;orthogonalLoop=1;jettySize=auto;html=1;exitX=0.5;exitY=1;exitDx=0;exitDy=0;entryX=0.5;entryY=0;entryDx=0;entryDy=0;" parent="1" source="ecHh17Bd5T7c7saSHl4--23" target="ecHh17Bd5T7c7saSHl4--25" edge="1">
          <mxGeometry relative="1" as="geometry" />
        </mxCell>
        <mxCell id="ecHh17Bd5T7c7saSHl4--23" value="" style="ellipse;whiteSpace=wrap;html=1;aspect=fixed;" parent="1" vertex="1">
          <mxGeometry x="380" y="240" width="40" height="40" as="geometry" />
        </mxCell>
        <mxCell id="ecHh17Bd5T7c7saSHl4--24" style="edgeStyle=orthogonalEdgeStyle;rounded=0;orthogonalLoop=1;jettySize=auto;html=1;exitX=0.5;exitY=1;exitDx=0;exitDy=0;entryX=0.5;entryY=0;entryDx=0;entryDy=0;" parent="1" source="ecHh17Bd5T7c7saSHl4--25" target="ecHh17Bd5T7c7saSHl4--26" edge="1">
          <mxGeometry relative="1" as="geometry" />
        </mxCell>
        <mxCell id="ecHh17Bd5T7c7saSHl4--25" value="" style="ellipse;whiteSpace=wrap;html=1;aspect=fixed;" parent="1" vertex="1">
          <mxGeometry x="380" y="310" width="40" height="40" as="geometry" />
        </mxCell>
        <mxCell id="ecHh17Bd5T7c7saSHl4--26" value="" style="ellipse;whiteSpace=wrap;html=1;aspect=fixed;fillColor=#B3B3B3;" parent="1" vertex="1">
          <mxGeometry x="380" y="380" width="40" height="40" as="geometry" />
        </mxCell>
        <mxCell id="ecHh17Bd5T7c7saSHl4--27" style="edgeStyle=orthogonalEdgeStyle;rounded=0;orthogonalLoop=1;jettySize=auto;html=1;exitX=0.5;exitY=1;exitDx=0;exitDy=0;entryX=0.5;entryY=0;entryDx=0;entryDy=0;" parent="1" target="ecHh17Bd5T7c7saSHl4--30" edge="1">
          <mxGeometry relative="1" as="geometry">
            <mxPoint x="460" y="190" as="sourcePoint" />
          </mxGeometry>
        </mxCell>
        <mxCell id="ecHh17Bd5T7c7saSHl4--29" style="edgeStyle=orthogonalEdgeStyle;rounded=0;orthogonalLoop=1;jettySize=auto;html=1;exitX=0.5;exitY=1;exitDx=0;exitDy=0;entryX=0.5;entryY=0;entryDx=0;entryDy=0;" parent="1" source="ecHh17Bd5T7c7saSHl4--30" target="ecHh17Bd5T7c7saSHl4--32" edge="1">
          <mxGeometry relative="1" as="geometry" />
        </mxCell>
        <mxCell id="ecHh17Bd5T7c7saSHl4--30" value="" style="ellipse;whiteSpace=wrap;html=1;aspect=fixed;" parent="1" vertex="1">
          <mxGeometry x="440" y="220" width="40" height="40" as="geometry" />
        </mxCell>
        <mxCell id="ecHh17Bd5T7c7saSHl4--31" style="edgeStyle=orthogonalEdgeStyle;rounded=0;orthogonalLoop=1;jettySize=auto;html=1;exitX=0.5;exitY=1;exitDx=0;exitDy=0;entryX=0.5;entryY=0;entryDx=0;entryDy=0;" parent="1" source="ecHh17Bd5T7c7saSHl4--32" target="ecHh17Bd5T7c7saSHl4--34" edge="1">
          <mxGeometry relative="1" as="geometry" />
        </mxCell>
        <mxCell id="ecHh17Bd5T7c7saSHl4--32" value="" style="ellipse;whiteSpace=wrap;html=1;aspect=fixed;" parent="1" vertex="1">
          <mxGeometry x="440" y="290" width="40" height="40" as="geometry" />
        </mxCell>
        <mxCell id="ecHh17Bd5T7c7saSHl4--33" style="edgeStyle=orthogonalEdgeStyle;rounded=0;orthogonalLoop=1;jettySize=auto;html=1;exitX=0.5;exitY=1;exitDx=0;exitDy=0;entryX=0.5;entryY=0;entryDx=0;entryDy=0;" parent="1" source="ecHh17Bd5T7c7saSHl4--34" target="ecHh17Bd5T7c7saSHl4--35" edge="1">
          <mxGeometry relative="1" as="geometry" />
        </mxCell>
        <mxCell id="ecHh17Bd5T7c7saSHl4--34" value="" style="ellipse;whiteSpace=wrap;html=1;aspect=fixed;" parent="1" vertex="1">
          <mxGeometry x="440" y="360" width="40" height="40" as="geometry" />
        </mxCell>
        <mxCell id="ecHh17Bd5T7c7saSHl4--35" value="" style="ellipse;whiteSpace=wrap;html=1;aspect=fixed;fillColor=#B3B3B3;" parent="1" vertex="1">
          <mxGeometry x="440" y="430" width="40" height="40" as="geometry" />
        </mxCell>
        <mxCell id="ecHh17Bd5T7c7saSHl4--36" style="edgeStyle=orthogonalEdgeStyle;rounded=0;orthogonalLoop=1;jettySize=auto;html=1;exitX=0.5;exitY=1;exitDx=0;exitDy=0;entryX=0.5;entryY=0;entryDx=0;entryDy=0;" parent="1" source="ecHh17Bd5T7c7saSHl4--37" target="ecHh17Bd5T7c7saSHl4--38" edge="1">
          <mxGeometry relative="1" as="geometry" />
        </mxCell>
        <mxCell id="ecHh17Bd5T7c7saSHl4--37" value="" style="ellipse;whiteSpace=wrap;html=1;aspect=fixed;" parent="1" vertex="1">
          <mxGeometry x="500" y="190" width="40" height="40" as="geometry" />
        </mxCell>
        <mxCell id="ecHh17Bd5T7c7saSHl4--38" value="" style="ellipse;whiteSpace=wrap;html=1;aspect=fixed;fillColor=#B3B3B3;" parent="1" vertex="1">
          <mxGeometry x="500" y="260" width="40" height="40" as="geometry" />
        </mxCell>
        <mxCell id="ecHh17Bd5T7c7saSHl4--39" value="&lt;font style=&quot;font-size: 15px;&quot;&gt;M01&lt;/font&gt;" style="edgeLabel;html=1;align=center;verticalAlign=middle;resizable=0;points=[];" parent="1" vertex="1" connectable="0">
          <mxGeometry x="300.0025883766151" y="100.0009047835997" as="geometry">
            <mxPoint x="-13" as="offset" />
          </mxGeometry>
        </mxCell>
        <mxCell id="ecHh17Bd5T7c7saSHl4--40" value="&lt;font style=&quot;font-size: 15px;&quot;&gt;M01&lt;/font&gt;" style="edgeLabel;html=1;align=center;verticalAlign=middle;resizable=0;points=[];" parent="1" vertex="1" connectable="0">
          <mxGeometry x="350.0025883766151" y="130.0009047835997" as="geometry" />
        </mxCell>
        <mxCell id="ecHh17Bd5T7c7saSHl4--41" value="&lt;font style=&quot;font-size: 15px;&quot;&gt;M01&lt;/font&gt;" style="edgeLabel;html=1;align=center;verticalAlign=middle;resizable=0;points=[];" parent="1" vertex="1" connectable="0">
          <mxGeometry x="300.0025883766151" y="180.0009047835997" as="geometry" />
        </mxCell>
        <mxCell id="ecHh17Bd5T7c7saSHl4--42" value="&lt;font style=&quot;font-size: 15px;&quot;&gt;M01&lt;/font&gt;" style="edgeLabel;html=1;align=center;verticalAlign=middle;resizable=0;points=[];" parent="1" vertex="1" connectable="0">
          <mxGeometry x="380.0025883766151" y="290.0009047835997" as="geometry" />
        </mxCell>
        <mxCell id="ecHh17Bd5T7c7saSHl4--43" value="&lt;font style=&quot;font-size: 15px;&quot;&gt;M01&lt;/font&gt;" style="edgeLabel;html=1;align=center;verticalAlign=middle;resizable=0;points=[];" parent="1" vertex="1" connectable="0">
          <mxGeometry x="380.0025883766151" y="360.0009047835997" as="geometry" />
        </mxCell>
        <mxCell id="ecHh17Bd5T7c7saSHl4--44" value="&lt;font style=&quot;font-size: 15px;&quot;&gt;M01&lt;/font&gt;" style="edgeLabel;html=1;align=center;verticalAlign=middle;resizable=0;points=[];" parent="1" vertex="1" connectable="0">
          <mxGeometry x="540.0025883766151" y="170.0009047835997" as="geometry" />
        </mxCell>
        <mxCell id="ecHh17Bd5T7c7saSHl4--45" value="&lt;font style=&quot;font-size: 15px;&quot;&gt;M01&lt;/font&gt;" style="edgeLabel;html=1;align=center;verticalAlign=middle;resizable=0;points=[];" parent="1" vertex="1" connectable="0">
          <mxGeometry x="540.0025883766151" y="240.0009047835997" as="geometry" />
        </mxCell>
        <mxCell id="ecHh17Bd5T7c7saSHl4--46" value="&lt;font style=&quot;font-size: 15px;&quot;&gt;M01&lt;/font&gt;" style="edgeLabel;html=1;align=center;verticalAlign=middle;resizable=0;points=[];" parent="1" vertex="1" connectable="0">
          <mxGeometry x="480.0025883766151" y="410.0009047835997" as="geometry" />
        </mxCell>
        <mxCell id="ecHh17Bd5T7c7saSHl4--47" value="&lt;font style=&quot;font-size: 15px;&quot;&gt;M01&lt;/font&gt;" style="edgeLabel;html=1;align=center;verticalAlign=middle;resizable=0;points=[];" parent="1" vertex="1" connectable="0">
          <mxGeometry x="480.0025883766151" y="340.0009047835997" as="geometry" />
        </mxCell>
        <mxCell id="ecHh17Bd5T7c7saSHl4--50" value="&lt;font style=&quot;font-size: 15px;&quot;&gt;C08&lt;/font&gt;" style="edgeLabel;html=1;align=center;verticalAlign=middle;resizable=0;points=[];" parent="1" vertex="1" connectable="0">
          <mxGeometry x="450.0025883766151" y="40.00090478359971" as="geometry">
            <mxPoint x="2" y="11" as="offset" />
          </mxGeometry>
        </mxCell>
        <mxCell id="ecHh17Bd5T7c7saSHl4--51" value="&lt;font style=&quot;font-size: 15px;&quot;&gt;C08&lt;/font&gt;" style="edgeLabel;html=1;align=center;verticalAlign=middle;resizable=0;points=[];" parent="1" vertex="1" connectable="0">
          <mxGeometry x="520.0025883766151" y="90.00090478359971" as="geometry">
            <mxPoint x="2" y="11" as="offset" />
          </mxGeometry>
        </mxCell>
        <mxCell id="ecHh17Bd5T7c7saSHl4--52" value="&lt;font style=&quot;font-size: 15px;&quot;&gt;C08&lt;/font&gt;" style="edgeLabel;html=1;align=center;verticalAlign=middle;resizable=0;points=[];" parent="1" vertex="1" connectable="0">
          <mxGeometry x="380.0025883766151" y="140.0009047835997" as="geometry">
            <mxPoint x="2" y="11" as="offset" />
          </mxGeometry>
        </mxCell>
        <mxCell id="ecHh17Bd5T7c7saSHl4--53" value="&lt;font style=&quot;font-size: 15px;&quot;&gt;C08&lt;/font&gt;" style="edgeLabel;html=1;align=center;verticalAlign=middle;resizable=0;points=[];" parent="1" vertex="1" connectable="0">
          <mxGeometry x="380.0025883766151" y="210.0009047835997" as="geometry">
            <mxPoint x="2" y="11" as="offset" />
          </mxGeometry>
        </mxCell>
        <mxCell id="ecHh17Bd5T7c7saSHl4--54" value="&lt;font style=&quot;font-size: 15px;&quot;&gt;C08&lt;/font&gt;" style="edgeLabel;html=1;align=center;verticalAlign=middle;resizable=0;points=[];" parent="1" vertex="1" connectable="0">
          <mxGeometry x="480.0025883766151" y="190.0009047835997" as="geometry">
            <mxPoint x="2" y="11" as="offset" />
          </mxGeometry>
        </mxCell>
        <mxCell id="ecHh17Bd5T7c7saSHl4--55" value="&lt;font style=&quot;font-size: 15px;&quot;&gt;C08&lt;/font&gt;" style="edgeLabel;html=1;align=center;verticalAlign=middle;resizable=0;points=[];" parent="1" vertex="1" connectable="0">
          <mxGeometry x="480.0025883766151" y="260.0009047835997" as="geometry">
            <mxPoint x="2" y="11" as="offset" />
          </mxGeometry>
        </mxCell>
        <mxCell id="BMH8FtZh9EEIWXpi6SqE-1" value="" style="endArrow=none;html=1;rounded=0;entryX=0.5;entryY=1;entryDx=0;entryDy=0;" edge="1" parent="1" target="ecHh17Bd5T7c7saSHl4--5">
          <mxGeometry width="50" height="50" relative="1" as="geometry">
            <mxPoint x="400" y="130" as="sourcePoint" />
            <mxPoint x="450" y="80" as="targetPoint" />
          </mxGeometry>
        </mxCell>
        <mxCell id="BMH8FtZh9EEIWXpi6SqE-2" value="" style="endArrow=none;html=1;rounded=0;" edge="1" parent="1">
          <mxGeometry width="50" height="50" relative="1" as="geometry">
            <mxPoint x="400" y="110" as="sourcePoint" />
            <mxPoint x="460" y="190" as="targetPoint" />
          </mxGeometry>
        </mxCell>
        <mxCell id="BMH8FtZh9EEIWXpi6SqE-4" value="" style="curved=1;endArrow=classic;html=1;rounded=0;entryX=1;entryY=0;entryDx=0;entryDy=0;exitX=0;exitY=0;exitDx=0;exitDy=0;" edge="1" parent="1" source="ecHh17Bd5T7c7saSHl4--5" target="ecHh17Bd5T7c7saSHl4--5">
          <mxGeometry width="50" height="50" relative="1" as="geometry">
            <mxPoint x="400" y="20" as="sourcePoint" />
            <mxPoint x="400" y="20" as="targetPoint" />
            <Array as="points">
              <mxPoint x="370" y="10" />
              <mxPoint x="400" y="-10" />
              <mxPoint x="430" y="10" />
            </Array>
          </mxGeometry>
        </mxCell>
        <mxCell id="BMH8FtZh9EEIWXpi6SqE-5" value="&lt;font style=&quot;font-size: 15px;&quot;&gt;C01&lt;/font&gt;" style="text;html=1;align=center;verticalAlign=middle;resizable=0;points=[];autosize=1;strokeColor=none;fillColor=none;" vertex="1" parent="1">
          <mxGeometry x="375" y="-30" width="50" height="30" as="geometry" />
        </mxCell>
      </root>
    </mxGraphModel>
  </diagram>
  <diagram id="x8FEk5So79oytlgu2Uer" name="PÃ¡gina-3">
    <mxGraphModel dx="983" dy="1705" grid="1" gridSize="10" guides="1" tooltips="1" connect="1" arrows="1" fold="1" page="1" pageScale="1" pageWidth="827" pageHeight="1169" math="0" shadow="0">
      <root>
        <mxCell id="0" />
        <mxCell id="1" parent="0" />
        <mxCell id="hGJlxtvkFXgjkRoVwiKd-1" style="rounded=0;orthogonalLoop=1;jettySize=auto;html=1;exitX=1;exitY=1;exitDx=0;exitDy=0;entryX=0;entryY=0;entryDx=0;entryDy=0;" edge="1" parent="1" source="hGJlxtvkFXgjkRoVwiKd-4" target="hGJlxtvkFXgjkRoVwiKd-8">
          <mxGeometry relative="1" as="geometry" />
        </mxCell>
        <mxCell id="hGJlxtvkFXgjkRoVwiKd-2" style="rounded=0;orthogonalLoop=1;jettySize=auto;html=1;exitX=0;exitY=1;exitDx=0;exitDy=0;entryX=1;entryY=0;entryDx=0;entryDy=0;" edge="1" parent="1" source="hGJlxtvkFXgjkRoVwiKd-4" target="hGJlxtvkFXgjkRoVwiKd-6">
          <mxGeometry relative="1" as="geometry" />
        </mxCell>
        <mxCell id="hGJlxtvkFXgjkRoVwiKd-3" value="&lt;font style=&quot;font-size: 15px;&quot;&gt;M01&lt;/font&gt;" style="edgeLabel;html=1;align=center;verticalAlign=middle;resizable=0;points=[];" vertex="1" connectable="0" parent="hGJlxtvkFXgjkRoVwiKd-2">
          <mxGeometry x="-0.2972" y="-1" relative="1" as="geometry">
            <mxPoint x="-21" y="-11" as="offset" />
          </mxGeometry>
        </mxCell>
        <mxCell id="hGJlxtvkFXgjkRoVwiKd-4" value="" style="ellipse;whiteSpace=wrap;html=1;aspect=fixed;" vertex="1" parent="1">
          <mxGeometry x="380" y="20" width="40" height="40" as="geometry" />
        </mxCell>
        <mxCell id="hGJlxtvkFXgjkRoVwiKd-5" style="rounded=0;orthogonalLoop=1;jettySize=auto;html=1;exitX=0;exitY=1;exitDx=0;exitDy=0;entryX=1;entryY=0;entryDx=0;entryDy=0;" edge="1" parent="1" source="hGJlxtvkFXgjkRoVwiKd-6" target="hGJlxtvkFXgjkRoVwiKd-9">
          <mxGeometry relative="1" as="geometry" />
        </mxCell>
        <mxCell id="hGJlxtvkFXgjkRoVwiKd-6" value="" style="ellipse;whiteSpace=wrap;html=1;aspect=fixed;" vertex="1" parent="1">
          <mxGeometry x="310" y="70" width="40" height="40" as="geometry" />
        </mxCell>
        <mxCell id="hGJlxtvkFXgjkRoVwiKd-7" style="rounded=0;orthogonalLoop=1;jettySize=auto;html=1;exitX=1;exitY=1;exitDx=0;exitDy=0;entryX=0;entryY=0;entryDx=0;entryDy=0;" edge="1" parent="1" source="hGJlxtvkFXgjkRoVwiKd-8" target="hGJlxtvkFXgjkRoVwiKd-13">
          <mxGeometry relative="1" as="geometry" />
        </mxCell>
        <mxCell id="hGJlxtvkFXgjkRoVwiKd-8" value="" style="ellipse;whiteSpace=wrap;html=1;aspect=fixed;" vertex="1" parent="1">
          <mxGeometry x="450" y="70" width="40" height="40" as="geometry" />
        </mxCell>
        <mxCell id="hGJlxtvkFXgjkRoVwiKd-9" value="" style="ellipse;whiteSpace=wrap;html=1;aspect=fixed;fillColor=#B3B3B3;fontColor=#333333;strokeColor=#585858;" vertex="1" parent="1">
          <mxGeometry x="250" y="120" width="40" height="40" as="geometry" />
        </mxCell>
        <mxCell id="hGJlxtvkFXgjkRoVwiKd-12" style="edgeStyle=orthogonalEdgeStyle;rounded=0;orthogonalLoop=1;jettySize=auto;html=1;exitX=0.5;exitY=1;exitDx=0;exitDy=0;entryX=0.5;entryY=0;entryDx=0;entryDy=0;" edge="1" parent="1" source="hGJlxtvkFXgjkRoVwiKd-13" target="hGJlxtvkFXgjkRoVwiKd-33">
          <mxGeometry relative="1" as="geometry" />
        </mxCell>
        <mxCell id="hGJlxtvkFXgjkRoVwiKd-13" value="" style="ellipse;whiteSpace=wrap;html=1;aspect=fixed;" vertex="1" parent="1">
          <mxGeometry x="500" y="120" width="40" height="40" as="geometry" />
        </mxCell>
        <mxCell id="hGJlxtvkFXgjkRoVwiKd-32" style="edgeStyle=orthogonalEdgeStyle;rounded=0;orthogonalLoop=1;jettySize=auto;html=1;exitX=0.5;exitY=1;exitDx=0;exitDy=0;entryX=0.5;entryY=0;entryDx=0;entryDy=0;" edge="1" parent="1" source="hGJlxtvkFXgjkRoVwiKd-33" target="hGJlxtvkFXgjkRoVwiKd-34">
          <mxGeometry relative="1" as="geometry" />
        </mxCell>
        <mxCell id="hGJlxtvkFXgjkRoVwiKd-33" value="" style="ellipse;whiteSpace=wrap;html=1;aspect=fixed;" vertex="1" parent="1">
          <mxGeometry x="500" y="190" width="40" height="40" as="geometry" />
        </mxCell>
        <mxCell id="hGJlxtvkFXgjkRoVwiKd-34" value="" style="ellipse;whiteSpace=wrap;html=1;aspect=fixed;fillColor=#B3B3B3;" vertex="1" parent="1">
          <mxGeometry x="500" y="260" width="40" height="40" as="geometry" />
        </mxCell>
        <mxCell id="hGJlxtvkFXgjkRoVwiKd-35" value="&lt;font style=&quot;font-size: 15px;&quot;&gt;M01&lt;/font&gt;" style="edgeLabel;html=1;align=center;verticalAlign=middle;resizable=0;points=[];" vertex="1" connectable="0" parent="1">
          <mxGeometry x="300.0025883766151" y="100.0009047835997" as="geometry">
            <mxPoint x="-13" as="offset" />
          </mxGeometry>
        </mxCell>
        <mxCell id="hGJlxtvkFXgjkRoVwiKd-40" value="&lt;font style=&quot;font-size: 15px;&quot;&gt;M01&lt;/font&gt;" style="edgeLabel;html=1;align=center;verticalAlign=middle;resizable=0;points=[];" vertex="1" connectable="0" parent="1">
          <mxGeometry x="540.0025883766151" y="170.0009047835997" as="geometry" />
        </mxCell>
        <mxCell id="hGJlxtvkFXgjkRoVwiKd-41" value="&lt;font style=&quot;font-size: 15px;&quot;&gt;M01&lt;/font&gt;" style="edgeLabel;html=1;align=center;verticalAlign=middle;resizable=0;points=[];" vertex="1" connectable="0" parent="1">
          <mxGeometry x="540.0025883766151" y="240.0009047835997" as="geometry" />
        </mxCell>
        <mxCell id="hGJlxtvkFXgjkRoVwiKd-44" value="&lt;font style=&quot;font-size: 15px;&quot;&gt;C08&lt;/font&gt;" style="edgeLabel;html=1;align=center;verticalAlign=middle;resizable=0;points=[];" vertex="1" connectable="0" parent="1">
          <mxGeometry x="450.0025883766151" y="40.00090478359971" as="geometry">
            <mxPoint x="2" y="11" as="offset" />
          </mxGeometry>
        </mxCell>
        <mxCell id="hGJlxtvkFXgjkRoVwiKd-45" value="&lt;font style=&quot;font-size: 15px;&quot;&gt;C08&lt;/font&gt;" style="edgeLabel;html=1;align=center;verticalAlign=middle;resizable=0;points=[];" vertex="1" connectable="0" parent="1">
          <mxGeometry x="520.0025883766151" y="90.00090478359971" as="geometry">
            <mxPoint x="2" y="11" as="offset" />
          </mxGeometry>
        </mxCell>
        <mxCell id="hGJlxtvkFXgjkRoVwiKd-52" value="" style="curved=1;endArrow=classic;html=1;rounded=0;entryX=1;entryY=0;entryDx=0;entryDy=0;exitX=0;exitY=0;exitDx=0;exitDy=0;" edge="1" parent="1" source="hGJlxtvkFXgjkRoVwiKd-4" target="hGJlxtvkFXgjkRoVwiKd-4">
          <mxGeometry width="50" height="50" relative="1" as="geometry">
            <mxPoint x="400" y="20" as="sourcePoint" />
            <mxPoint x="400" y="20" as="targetPoint" />
            <Array as="points">
              <mxPoint x="370" y="10" />
              <mxPoint x="400" y="-10" />
              <mxPoint x="430" y="10" />
            </Array>
          </mxGeometry>
        </mxCell>
        <mxCell id="hGJlxtvkFXgjkRoVwiKd-53" value="&lt;font style=&quot;font-size: 15px;&quot;&gt;C01&lt;/font&gt;" style="text;html=1;align=center;verticalAlign=middle;resizable=0;points=[];autosize=1;strokeColor=none;fillColor=none;" vertex="1" parent="1">
          <mxGeometry x="375" y="-30" width="50" height="30" as="geometry" />
        </mxCell>
      </root>
    </mxGraphModel>
  </diagram>
  <diagram id="IzAFdeXP_cHDkVu9DZGi" name="PÃ¡gina-4">
    <mxGraphModel dx="679" dy="1539" grid="1" gridSize="10" guides="1" tooltips="1" connect="1" arrows="1" fold="1" page="1" pageScale="1" pageWidth="827" pageHeight="1169" math="0" shadow="0">
      <root>
        <mxCell id="0" />
        <mxCell id="1" parent="0" />
        <mxCell id="moG8lqScmHpacHVJnVpB-2" style="rounded=0;orthogonalLoop=1;jettySize=auto;html=1;exitX=0;exitY=1;exitDx=0;exitDy=0;entryX=1;entryY=0;entryDx=0;entryDy=0;" edge="1" parent="1" source="moG8lqScmHpacHVJnVpB-4" target="moG8lqScmHpacHVJnVpB-6">
          <mxGeometry relative="1" as="geometry" />
        </mxCell>
        <mxCell id="moG8lqScmHpacHVJnVpB-3" value="&lt;font style=&quot;font-size: 15px;&quot;&gt;M01&lt;/font&gt;" style="edgeLabel;html=1;align=center;verticalAlign=middle;resizable=0;points=[];" vertex="1" connectable="0" parent="moG8lqScmHpacHVJnVpB-2">
          <mxGeometry x="-0.2972" y="-1" relative="1" as="geometry">
            <mxPoint x="-21" y="-11" as="offset" />
          </mxGeometry>
        </mxCell>
        <mxCell id="moG8lqScmHpacHVJnVpB-4" value="" style="ellipse;whiteSpace=wrap;html=1;aspect=fixed;" vertex="1" parent="1">
          <mxGeometry x="380" y="20" width="40" height="40" as="geometry" />
        </mxCell>
        <mxCell id="moG8lqScmHpacHVJnVpB-5" style="rounded=0;orthogonalLoop=1;jettySize=auto;html=1;exitX=0;exitY=1;exitDx=0;exitDy=0;entryX=1;entryY=0;entryDx=0;entryDy=0;" edge="1" parent="1" source="moG8lqScmHpacHVJnVpB-6" target="moG8lqScmHpacHVJnVpB-9">
          <mxGeometry relative="1" as="geometry" />
        </mxCell>
        <mxCell id="moG8lqScmHpacHVJnVpB-6" value="" style="ellipse;whiteSpace=wrap;html=1;aspect=fixed;" vertex="1" parent="1">
          <mxGeometry x="310" y="70" width="40" height="40" as="geometry" />
        </mxCell>
        <mxCell id="moG8lqScmHpacHVJnVpB-9" value="" style="ellipse;whiteSpace=wrap;html=1;aspect=fixed;fillColor=#B3B3B3;fontColor=#333333;strokeColor=#585858;" vertex="1" parent="1">
          <mxGeometry x="250" y="120" width="40" height="40" as="geometry" />
        </mxCell>
        <mxCell id="moG8lqScmHpacHVJnVpB-10" style="edgeStyle=orthogonalEdgeStyle;rounded=0;orthogonalLoop=1;jettySize=auto;html=1;exitX=0.5;exitY=1;exitDx=0;exitDy=0;entryX=0.5;entryY=0;entryDx=0;entryDy=0;" edge="1" parent="1" source="moG8lqScmHpacHVJnVpB-11" target="moG8lqScmHpacHVJnVpB-13">
          <mxGeometry relative="1" as="geometry" />
        </mxCell>
        <mxCell id="moG8lqScmHpacHVJnVpB-11" value="" style="ellipse;whiteSpace=wrap;html=1;aspect=fixed;" vertex="1" parent="1">
          <mxGeometry x="500" y="120" width="40" height="40" as="geometry" />
        </mxCell>
        <mxCell id="moG8lqScmHpacHVJnVpB-12" style="edgeStyle=orthogonalEdgeStyle;rounded=0;orthogonalLoop=1;jettySize=auto;html=1;exitX=0.5;exitY=1;exitDx=0;exitDy=0;entryX=0.5;entryY=0;entryDx=0;entryDy=0;" edge="1" parent="1" source="moG8lqScmHpacHVJnVpB-13" target="moG8lqScmHpacHVJnVpB-14">
          <mxGeometry relative="1" as="geometry" />
        </mxCell>
        <mxCell id="moG8lqScmHpacHVJnVpB-13" value="" style="ellipse;whiteSpace=wrap;html=1;aspect=fixed;" vertex="1" parent="1">
          <mxGeometry x="500" y="190" width="40" height="40" as="geometry" />
        </mxCell>
        <mxCell id="moG8lqScmHpacHVJnVpB-14" value="" style="ellipse;whiteSpace=wrap;html=1;aspect=fixed;fillColor=#B3B3B3;" vertex="1" parent="1">
          <mxGeometry x="500" y="260" width="40" height="40" as="geometry" />
        </mxCell>
        <mxCell id="moG8lqScmHpacHVJnVpB-15" value="&lt;font style=&quot;font-size: 15px;&quot;&gt;M01&lt;/font&gt;" style="edgeLabel;html=1;align=center;verticalAlign=middle;resizable=0;points=[];" vertex="1" connectable="0" parent="1">
          <mxGeometry x="300.0025883766151" y="100.0009047835997" as="geometry">
            <mxPoint x="-13" as="offset" />
          </mxGeometry>
        </mxCell>
        <mxCell id="moG8lqScmHpacHVJnVpB-16" value="&lt;font style=&quot;font-size: 15px;&quot;&gt;M01&lt;/font&gt;" style="edgeLabel;html=1;align=center;verticalAlign=middle;resizable=0;points=[];" vertex="1" connectable="0" parent="1">
          <mxGeometry x="540.0025883766151" y="170.0009047835997" as="geometry" />
        </mxCell>
        <mxCell id="moG8lqScmHpacHVJnVpB-17" value="&lt;font style=&quot;font-size: 15px;&quot;&gt;M01&lt;/font&gt;" style="edgeLabel;html=1;align=center;verticalAlign=middle;resizable=0;points=[];" vertex="1" connectable="0" parent="1">
          <mxGeometry x="540.0025883766151" y="240.0009047835997" as="geometry" />
        </mxCell>
        <mxCell id="moG8lqScmHpacHVJnVpB-19" value="&lt;font style=&quot;font-size: 15px;&quot;&gt;C08&lt;/font&gt;" style="edgeLabel;html=1;align=center;verticalAlign=middle;resizable=0;points=[];" vertex="1" connectable="0" parent="1">
          <mxGeometry x="480.0025883766151" y="70.00090478359971" as="geometry">
            <mxPoint x="2" y="11" as="offset" />
          </mxGeometry>
        </mxCell>
        <mxCell id="moG8lqScmHpacHVJnVpB-20" value="" style="curved=1;endArrow=classic;html=1;rounded=0;entryX=1;entryY=0;entryDx=0;entryDy=0;exitX=0;exitY=0;exitDx=0;exitDy=0;" edge="1" parent="1" source="moG8lqScmHpacHVJnVpB-4" target="moG8lqScmHpacHVJnVpB-4">
          <mxGeometry width="50" height="50" relative="1" as="geometry">
            <mxPoint x="400" y="20" as="sourcePoint" />
            <mxPoint x="400" y="20" as="targetPoint" />
            <Array as="points">
              <mxPoint x="370" y="10" />
              <mxPoint x="400" y="-10" />
              <mxPoint x="430" y="10" />
            </Array>
          </mxGeometry>
        </mxCell>
        <mxCell id="moG8lqScmHpacHVJnVpB-21" value="&lt;font style=&quot;font-size: 15px;&quot;&gt;C01&lt;/font&gt;" style="text;html=1;align=center;verticalAlign=middle;resizable=0;points=[];autosize=1;strokeColor=none;fillColor=none;" vertex="1" parent="1">
          <mxGeometry x="375" y="-30" width="50" height="30" as="geometry" />
        </mxCell>
        <mxCell id="moG8lqScmHpacHVJnVpB-24" value="" style="endArrow=classic;html=1;rounded=0;exitX=1;exitY=1;exitDx=0;exitDy=0;entryX=0;entryY=0;entryDx=0;entryDy=0;" edge="1" parent="1" source="moG8lqScmHpacHVJnVpB-4" target="moG8lqScmHpacHVJnVpB-11">
          <mxGeometry width="50" height="50" relative="1" as="geometry">
            <mxPoint x="440" y="70" as="sourcePoint" />
            <mxPoint x="490" y="20" as="targetPoint" />
          </mxGeometry>
        </mxCell>
        <mxCell id="GRU-MTOC4L1-nRaXtXeU-1" value="&lt;font style=&quot;font-size: 15px;&quot;&gt;C08&lt;/font&gt;" style="text;html=1;align=center;verticalAlign=middle;resizable=0;points=[];autosize=1;strokeColor=none;fillColor=none;" vertex="1" parent="1">
          <mxGeometry x="375" y="-50" width="50" height="30" as="geometry" />
        </mxCell>
      </root>
    </mxGraphModel>
  </diagram>
  <diagram id="k3lZ3QG8DK0Jydzo3riI" name="PÃ¡gina-5">
    <mxGraphModel dx="815" dy="1613" grid="1" gridSize="10" guides="1" tooltips="1" connect="1" arrows="1" fold="1" page="1" pageScale="1" pageWidth="827" pageHeight="1169" math="0" shadow="0">
      <root>
        <mxCell id="0" />
        <mxCell id="1" parent="0" />
        <mxCell id="59ySnaw3JjUWEKyCUoFH-1" style="rounded=0;orthogonalLoop=1;jettySize=auto;html=1;exitX=0;exitY=1;exitDx=0;exitDy=0;entryX=1;entryY=0;entryDx=0;entryDy=0;" edge="1" parent="1" source="59ySnaw3JjUWEKyCUoFH-3" target="59ySnaw3JjUWEKyCUoFH-5">
          <mxGeometry relative="1" as="geometry" />
        </mxCell>
        <mxCell id="59ySnaw3JjUWEKyCUoFH-2" value="&lt;font style=&quot;font-size: 15px;&quot;&gt;M01&lt;/font&gt;" style="edgeLabel;html=1;align=center;verticalAlign=middle;resizable=0;points=[];" vertex="1" connectable="0" parent="59ySnaw3JjUWEKyCUoFH-1">
          <mxGeometry x="-0.2972" y="-1" relative="1" as="geometry">
            <mxPoint x="-21" y="-11" as="offset" />
          </mxGeometry>
        </mxCell>
        <mxCell id="59ySnaw3JjUWEKyCUoFH-3" value="" style="ellipse;whiteSpace=wrap;html=1;aspect=fixed;" vertex="1" parent="1">
          <mxGeometry x="380" y="20" width="40" height="40" as="geometry" />
        </mxCell>
        <mxCell id="59ySnaw3JjUWEKyCUoFH-4" style="rounded=0;orthogonalLoop=1;jettySize=auto;html=1;exitX=0;exitY=1;exitDx=0;exitDy=0;entryX=1;entryY=0;entryDx=0;entryDy=0;" edge="1" parent="1" source="59ySnaw3JjUWEKyCUoFH-5" target="59ySnaw3JjUWEKyCUoFH-6">
          <mxGeometry relative="1" as="geometry" />
        </mxCell>
        <mxCell id="59ySnaw3JjUWEKyCUoFH-5" value="" style="ellipse;whiteSpace=wrap;html=1;aspect=fixed;" vertex="1" parent="1">
          <mxGeometry x="310" y="70" width="40" height="40" as="geometry" />
        </mxCell>
        <mxCell id="59ySnaw3JjUWEKyCUoFH-6" value="" style="ellipse;whiteSpace=wrap;html=1;aspect=fixed;fillColor=#B3B3B3;fontColor=#333333;strokeColor=#585858;" vertex="1" parent="1">
          <mxGeometry x="250" y="120" width="40" height="40" as="geometry" />
        </mxCell>
        <mxCell id="59ySnaw3JjUWEKyCUoFH-12" value="&lt;font style=&quot;font-size: 15px;&quot;&gt;M01&lt;/font&gt;" style="edgeLabel;html=1;align=center;verticalAlign=middle;resizable=0;points=[];" vertex="1" connectable="0" parent="1">
          <mxGeometry x="300.0025883766151" y="100.0009047835997" as="geometry">
            <mxPoint x="-13" as="offset" />
          </mxGeometry>
        </mxCell>
        <mxCell id="59ySnaw3JjUWEKyCUoFH-16" value="" style="curved=1;endArrow=classic;html=1;rounded=0;entryX=1;entryY=0;entryDx=0;entryDy=0;exitX=0;exitY=0;exitDx=0;exitDy=0;" edge="1" parent="1" source="59ySnaw3JjUWEKyCUoFH-3" target="59ySnaw3JjUWEKyCUoFH-3">
          <mxGeometry width="50" height="50" relative="1" as="geometry">
            <mxPoint x="400" y="20" as="sourcePoint" />
            <mxPoint x="400" y="20" as="targetPoint" />
            <Array as="points">
              <mxPoint x="370" y="10" />
              <mxPoint x="400" y="-10" />
              <mxPoint x="430" y="10" />
            </Array>
          </mxGeometry>
        </mxCell>
        <mxCell id="59ySnaw3JjUWEKyCUoFH-17" value="&lt;font style=&quot;font-size: 15px;&quot;&gt;C01&lt;/font&gt;" style="text;html=1;align=center;verticalAlign=middle;resizable=0;points=[];autosize=1;strokeColor=none;fillColor=none;" vertex="1" parent="1">
          <mxGeometry x="375" y="-30" width="50" height="30" as="geometry" />
        </mxCell>
        <mxCell id="59ySnaw3JjUWEKyCUoFH-19" value="&lt;font style=&quot;font-size: 15px;&quot;&gt;C08&lt;/font&gt;" style="text;html=1;align=center;verticalAlign=middle;resizable=0;points=[];autosize=1;strokeColor=none;fillColor=none;" vertex="1" parent="1">
          <mxGeometry x="375" y="-50" width="50" height="30" as="geometry" />
        </mxCell>
      </root>
    </mxGraphModel>
  </diagram>
</mxfile>
